<mxfile host="app.diagrams.net" agent="Mozilla/5.0 (Windows NT 10.0; Win64; x64) AppleWebKit/537.36 (KHTML, like Gecko) Chrome/137.0.0.0 Safari/537.36 Edg/137.0.0.0" version="27.1.4">
  <diagram name="Page-1" id="X7tMd0YKD9EV6VvsHXcl">
    <mxGraphModel dx="1034" dy="674" grid="1" gridSize="10" guides="1" tooltips="1" connect="1" arrows="1" fold="1" page="1" pageScale="1" pageWidth="827" pageHeight="1169" math="0" shadow="0">
      <root>
        <mxCell id="0" />
        <mxCell id="1" parent="0" />
        <mxCell id="HQHj2--dUEoK1kg0hZ8U-3" style="edgeStyle=orthogonalEdgeStyle;rounded=0;orthogonalLoop=1;jettySize=auto;html=1;entryX=0.5;entryY=0;entryDx=0;entryDy=0;" edge="1" parent="1" source="HQHj2--dUEoK1kg0hZ8U-1" target="HQHj2--dUEoK1kg0hZ8U-2">
          <mxGeometry relative="1" as="geometry" />
        </mxCell>
        <mxCell id="HQHj2--dUEoK1kg0hZ8U-1" value="user clicks &quot;Initiate&quot; button (FE)" style="ellipse;whiteSpace=wrap;html=1;aspect=fixed;" vertex="1" parent="1">
          <mxGeometry x="130" y="100" width="80" height="80" as="geometry" />
        </mxCell>
        <mxCell id="HQHj2--dUEoK1kg0hZ8U-9" value="YES" style="edgeStyle=orthogonalEdgeStyle;rounded=0;orthogonalLoop=1;jettySize=auto;html=1;entryX=0;entryY=0.5;entryDx=0;entryDy=0;entryPerimeter=0;" edge="1" parent="1" source="HQHj2--dUEoK1kg0hZ8U-2" target="HQHj2--dUEoK1kg0hZ8U-23">
          <mxGeometry relative="1" as="geometry">
            <mxPoint x="310" y="320" as="targetPoint" />
          </mxGeometry>
        </mxCell>
        <mxCell id="HQHj2--dUEoK1kg0hZ8U-11" value="No" style="edgeStyle=orthogonalEdgeStyle;rounded=0;orthogonalLoop=1;jettySize=auto;html=1;entryX=0.5;entryY=0;entryDx=0;entryDy=0;" edge="1" parent="1" source="HQHj2--dUEoK1kg0hZ8U-2" target="HQHj2--dUEoK1kg0hZ8U-10">
          <mxGeometry relative="1" as="geometry" />
        </mxCell>
        <mxCell id="HQHj2--dUEoK1kg0hZ8U-2" value="Is user present in Yapily?" style="rhombus;whiteSpace=wrap;html=1;" vertex="1" parent="1">
          <mxGeometry x="130" y="270" width="80" height="80" as="geometry" />
        </mxCell>
        <mxCell id="HQHj2--dUEoK1kg0hZ8U-24" style="edgeStyle=orthogonalEdgeStyle;rounded=0;orthogonalLoop=1;jettySize=auto;html=1;entryX=0;entryY=0.5;entryDx=0;entryDy=0;entryPerimeter=0;" edge="1" parent="1" source="HQHj2--dUEoK1kg0hZ8U-10" target="HQHj2--dUEoK1kg0hZ8U-23">
          <mxGeometry relative="1" as="geometry">
            <mxPoint x="410" y="340" as="targetPoint" />
          </mxGeometry>
        </mxCell>
        <mxCell id="HQHj2--dUEoK1kg0hZ8U-10" value="Set newYapilyUser flag to true" style="rounded=0;whiteSpace=wrap;html=1;" vertex="1" parent="1">
          <mxGeometry x="120" y="420" width="100" height="50" as="geometry" />
        </mxCell>
        <mxCell id="HQHj2--dUEoK1kg0hZ8U-12" value="Update user details with Yapily UUID (yapily user id)" style="rounded=0;whiteSpace=wrap;html=1;" vertex="1" parent="1">
          <mxGeometry x="540" y="140" width="105" height="80" as="geometry" />
        </mxCell>
        <mxCell id="HQHj2--dUEoK1kg0hZ8U-23" value="create authorization in yapily" style="strokeWidth=2;html=1;shape=mxgraph.flowchart.delay;whiteSpace=wrap;" vertex="1" parent="1">
          <mxGeometry x="330" y="330" width="100" height="60" as="geometry" />
        </mxCell>
        <mxCell id="HQHj2--dUEoK1kg0hZ8U-29" style="edgeStyle=orthogonalEdgeStyle;rounded=0;orthogonalLoop=1;jettySize=auto;html=1;entryX=0;entryY=0.5;entryDx=0;entryDy=0;" edge="1" parent="1" source="HQHj2--dUEoK1kg0hZ8U-26" target="HQHj2--dUEoK1kg0hZ8U-12">
          <mxGeometry relative="1" as="geometry" />
        </mxCell>
        <mxCell id="HQHj2--dUEoK1kg0hZ8U-30" value="Yes" style="edgeLabel;html=1;align=center;verticalAlign=middle;resizable=0;points=[];" vertex="1" connectable="0" parent="HQHj2--dUEoK1kg0hZ8U-29">
          <mxGeometry x="-0.3988" y="3" relative="1" as="geometry">
            <mxPoint as="offset" />
          </mxGeometry>
        </mxCell>
        <mxCell id="HQHj2--dUEoK1kg0hZ8U-26" value="is new yapily&lt;div&gt;&amp;nbsp;User flag true&lt;/div&gt;" style="strokeWidth=2;html=1;shape=mxgraph.flowchart.decision;whiteSpace=wrap;" vertex="1" parent="1">
          <mxGeometry x="470" y="315" width="90" height="90" as="geometry" />
        </mxCell>
        <mxCell id="HQHj2--dUEoK1kg0hZ8U-27" style="edgeStyle=orthogonalEdgeStyle;rounded=0;orthogonalLoop=1;jettySize=auto;html=1;entryX=0;entryY=0.5;entryDx=0;entryDy=0;entryPerimeter=0;" edge="1" parent="1" source="HQHj2--dUEoK1kg0hZ8U-23" target="HQHj2--dUEoK1kg0hZ8U-26">
          <mxGeometry relative="1" as="geometry" />
        </mxCell>
      </root>
    </mxGraphModel>
  </diagram>
</mxfile>
